<svg xmlns="http://www.w3.org/2000/svg" width="609" height="539" viewBox="0 0 609 539" fill="none"><path d="M293.6 281.4C293.6 189.6 245 145.8 185 145.8C157.4 145.8 126.2 164.4 114.8 195H111.8L112.4 156.6C112.4 152.4 110 151.2 107.6 151.2H0.8V153.6C6.2 154.2 20.6 156.6 27.8 162.6C34.4 168.6 37.4 172.2 38.6 183C39.8 192.6 39.8 213.6 39.8 224.4V460.8C39.8 477.6 40.4 496.2 37.4 508.8C33.8 525 29 528 16.4 533.4C11.6 535.2 8 535.2 3.8 535.8V538.8H149V535.8C144.8 535.2 141.2 535.2 136.4 533.4C123.8 528 119 525 115.4 508.8C112.4 496.2 113 477.6 113 460.8V395.4H114.8C131 409.8 149.6 416.4 178.4 416.4C244.4 416.4 293.6 365.4 293.6 281.4ZM215 279C215 375 199.4 406.8 168.8 406.8C152.6 406.8 141.2 399.6 130.4 387C119.6 374.4 113 345 113 319.2V246.6C113 198 137 160.2 168.2 160.2C198.8 160.2 215 183 215 279ZM608.961 411.6V409.2C604.161 408.6 593.361 408 587.361 403.8C579.561 399 575.361 391.2 574.161 380.4C572.961 370.8 572.961 354.6 572.961 343.8V132C572.961 101.4 574.761 27 574.761 4.19998C574.761 1.79998 572.961 1.19998 571.761 0.599991H465.561V3C470.361 3.59999 478.161 4.19998 484.161 7.79997C491.361 12 495.561 17.4 497.361 28.8C498.561 37.2 498.561 58.2 498.561 67.2V189H497.961C488.961 166.2 469.761 145.8 433.761 145.8C373.161 145.8 318.561 191.4 318.561 282C318.561 375 370.761 416.4 426.561 416.4C463.761 416.4 489.561 396 499.761 364.8H500.361V394.2C500.361 396 499.761 409.2 499.761 410.4C499.761 412.2 501.561 413.4 502.161 413.4C505.761 413.4 598.761 411.6 608.961 411.6ZM498.561 320.4C498.561 373.8 475.161 402.6 444.561 402.6C415.761 402.6 397.761 361.8 397.761 283.2C397.761 206.4 416.961 157.8 447.561 157.8C462.561 157.8 474.561 165.6 482.961 178.8C492.561 192.6 498.561 210.6 498.561 238.8V320.4Z" fill="#ffffff"></path></svg>